<?xml version="1.0" encoding="UTF-8"?>
<svg id="Capa_1" data-name="Capa 1" xmlns="http://www.w3.org/2000/svg" viewBox="0 0 827.82 305.22">
  <defs>
    <style>
      .cls-1 {
        fill: #006aff;
      }
    </style>
  </defs>
  <path class="cls-1" d="M311.29,63.7h318.08s-7.51-12.96-26.82-29.7c-19.32-16.74-33.87-22.3-73.5-28.92C486.07-2.11,341.27-.22,320.36,2.03c-17.63,1.89-22.3,7.16-24.35,10.19-3.85,5.68-3.73,11.47-2.75,19.48,.72,5.87,2.18,12.14,3.5,17.66,3.29,13.81,10.73,14.33,14.53,14.33Z"/>
  <path class="cls-1" d="M654.8,73c6.26,0,31.34-5.64,36.98-12.53,5.64-6.9-4.39-14.42-11.91-18.18-7.53-3.76-20.27-10.66-31.45-5.02,0,0-1.78,0-3.66,8.78-1.88,8.78,3.76,26.95,10.03,26.95Z"/>
  <path class="cls-1" d="M147.7,94.76c11.07,4.82,104.14-30.28,104.14-30.28,0,0,11.37-3.26,18.16-18.81,5.14-11.76,12.48-27.52,6.73-34.17-1.17-1.35-4.64-4.84-15.03-1.05-16.74,6.09-51.15,19.35-85.88,47.66-23.17,18.88-39.18,31.83-28.12,36.65Z"/>
  <path class="cls-1" d="M129.06,85.26c.27,3.7,16.75-27.8,63.33-55.32,6.57-3.89-16.53-.59-38.4,5.19-11.18,2.96-34.48,7.9-36.75,15.77-2.11,7.32,3.58,14.12,5.62,16.95,2.3,3.87,5.7,10.62,6.2,17.4Z"/>
  <path class="cls-1" d="M0,291.27c0,7.7,185.31,13.95,413.91,13.95s413.91-6.25,413.91-13.95c0-3.62-40.9-6.91-107.98-9.39,10.85-1.56,13.65-16.9,14.47-18.76,10.54-.13,12.37,.02,16.49,0,7.61-.05,6.87-14.56,8.02-43.95,.52-13.42,2.6-29.73,1.1-59.31-1.78-35.18-26.7-69.58-46.84-69.99-29.98-.61-46.22,7.2-59.01,38.61,5.03-.15,68.91,.03,74.91,6.01,5.98,5.99,5.98,22.31,5.98,22.31,0,0-67.28-1.77-87.85-.41-4.12,26.73-6.28,52.72-46.93,57.55-64.15,7.62-127.14,4.9-147.88-30.42-3.63-6.19-8.99-15.19-17.28-25.46-35.28-.35-96.76,.91-100.07,.91-4.36,0-6.53-9.25-7.62-15.78-1.77-10.62,3.81-9.08,79.07-13.41-18.56-14.79-43.92-29.57-78.84-41.01-84.76-27.75-105.38-9.8-117.98,17.96-9.97,21.96-11.28,44.95-9.87,72.19,.25,4.87-.03,20.64,0,22.31-18.98-1.07-51.17,1.6-52.87-33.66-1.72-35.65,4.01-47.08,4.01-49.26s-26.92-2.72-20.62-18.5c6.3-15.79-27.89,2.02-35.51,7.62-4.52,1.52-10.58,6.97-12.6,15.79-.57,2.47-.99,8.11-1.26,15.65-9.09,6.88-15.92,35.84-15.92,70.53,0,24.71,3.46,46.51,8.75,59.5,1.55,3.81,5.9,11.68,9.72,13.96-52.35,2.33-83.41,5.25-83.41,8.4Z"/>
  <path class="cls-1" d="M230.75,128.92c9.02,0,16.34,29.04,16.34,64.86s-7.31,64.86-16.34,64.86-16.34-29.04-16.34-64.86,7.31-64.86,16.34-64.86Z"/>
  <path class="cls-1" d="M77.09,209.41c0-30.8,6.29-55.76,14.05-55.76s14.04,24.96,14.04,55.76-6.29,55.76-14.04,55.76-14.05-24.97-14.05-55.76Z"/>
  <path class="cls-1" d="M164.56,258.4c15.25,.78,30.69,1.23,44.23,1.49,3.11,8.73,6.86,15.33,11.01,19.06-23.64,.42-45.91,.92-66.54,1.49,4.43-2.74,8.37-10.69,11.3-22.03Z"/>
  <path class="cls-1" d="M294.06,277.92c1.99-2.35,3.85-5.79,5.51-10.11,38.63-.26,226-2.33,346.82-3.69,3.1,7.46,6.73,12.95,10.68,15.87-68.27-1.67-152.29-2.66-243.16-2.66-41.68,0-81.91,.21-119.85,.6Z"/>
</svg>